# xmcd CD database file
#
# Track frame offsets:
#	150
#	20590
#	39047
#	59802
#	79623
#	97450
#	118320
#	138140
#	158407
#	181237
#	201987
#	226804
#	247282
#	265978
#	286728
#	306754
#
# Disc length: 4370 seconds
#
# Revision: 0
# Processed by: cddbd v1.5.2PL0 Copyright (c) Steve Scherf et al.
# Submitted via: CDex 1.70beta2
#
DISCID=e0111010
DTITLE=Jean-Luc Guanel - An Ti Ron Dan Syel
DYEAR=2005
DGENRE=Salsa
TTITLE0=Sé Pou Sa
TTITLE1=Veux Tu ...?
TTITLE2=Lass Chechéw
TTITLE3=Sé Péyi'w
TTITLE4=Est-Ce Que Tu M'Aimes Encore
TTITLE5=Hey (Le Ni Lanmou)
TTITLE6=Tou Lé Jou
TTITLE7=Bye-Bye
TTITLE8=Nou Mantché Pawol
TTITLE9=Poko Tan'n Ayen
TTITLE10=Grèv' Lésans'
TTITLE11=Lawond Chanté
TTITLE12=Ayen Pa Chanjé
TTITLE13=Lanmou Medicaman
TTITLE14=Pwodui A
TTITLE15=Ce Serait Beau
EXTD=YEAR: 2005
EXTT0=
EXTT1=
EXTT2=
EXTT3=
EXTT4=
EXTT5=
EXTT6=
EXTT7=
EXTT8=
EXTT9=
EXTT10=
EXTT11=
EXTT12=
EXTT13=
EXTT14=
EXTT15=
PLAYORDER=
